<?xml version="1.0" encoding="utf-8"?>
<!-- Generator: Adobe Illustrator 16.0.0, SVG Export Plug-In . SVG Version: 6.00 Build 0)  -->
<!DOCTYPE svg PUBLIC "-//W3C//DTD SVG 1.1//EN" "http://www.w3.org/Graphics/SVG/1.1/DTD/svg11.dtd">
<svg version="1.1" id="Layer_1" xmlns="http://www.w3.org/2000/svg" xmlns:xlink="http://www.w3.org/1999/xlink" x="0px" y="0px"
	 width="866.277px" height="280.738px" viewBox="121.86 205.093 866.277 280.738"
	 enable-background="new 121.86 205.093 866.277 280.738" xml:space="preserve">
<path d="M489.059,297.751c-20.695,12.241-25.656,50.079-26.167,53c-0.296,1.69-1.818,3.15-2.5,3.73v-68.206l-71.333,23.976
	l21.25,13.14v136.5l-21.38,24h94l-22.537-23.807v-86.886c0.391-2.641,0.928-5.346,1.667-7.614c2.333-7.167,8.167-17.167,22.833-24
	c14.667-6.833,36.833-5.333,36.833-5.333l15.167-49.833C536.893,286.418,512.059,284.146,489.059,297.751z"/>
<path d="M360.062,432.208c-2.603,6.038-6.714,11.787-11.128,16.567c-21.583,23.37-48.438,23.238-75.959,14.103
	c-32.796-10.888-57.501-33.195-77.657-60.411c-25.958-35.051-42.293-73.434-38.374-118.491
	c3.571-41.056,37.933-67.716,77.934-60.173c24.26,4.575,44.427,16.564,63.122,31.661l9.293,7.784h10.568
	c18.583,0.264,37.28,0.102,56.896,0.102c-0.023-0.034-0.047-0.068-0.07-0.102h0.07c0,0-0.171-0.213-0.482-0.596
	c-5.694-8.317-12.403-15.837-19.896-22.491c-2.701-2.659-5.118-4.751-6.806-5.646c-0.006-0.003-0.014-0.005-0.021-0.009
	c-35.906-27.771-86.412-37.381-129.733-22.32c-61.671,21.442-100.475,80.276-95.535,144.849
	c4.716,61.647,52.486,115.06,113.392,126.379c45.398,8.437,88.515-5.947,117.908-31.739l0.01-0.003
	c21.722-18.61,28.476-34.839,28.476-34.839h-17.815C364.254,416.831,362.841,424.539,360.062,432.208z"/>
<path d="M950.722,237.918l-71.398,48.37h-59.687v-3.87c0,0,0.46-31.46,0.46-35.08c0-3.63,0.408-12.67,1.108-15.42
	c0.807-3.17,5.662-14.74,18.923-14.25c6.719,0.25,12.559,4.83,19.016,15.75c6.28,10.61,8.896,17.5,8.896,17.5l45.527-34.2
	c0,0-48.667-10.3-77.709-4.05s-49.189,19.75-58.871,36.25c-8.927,15.23-9.618,25.98-9.671,37.37h-22.512v4.88h22.502
	c0,22.09,0,168.92,0,168.92l-22.502,23.58h97.333l-22.502-24.75v-167.75h79.803v105.22c0,0-0.293,5.59,0,13.74
	c0.293,8.24,1.172,19.1,3.548,29.44c2.188,9.54,5.641,18.64,11.073,24.819c17.111,19.49,39.718,19.92,49.524,19.71h0.011
	c0.198,0.011,0.397,0.021,0.597,0.021l11.125-0.021h0.021l6.26-0.01v-2.43c0,0-1.538,0.05-4.94-0.95c-2.418-0.71-4.699-2-6.457-3.21
	c-2.396-1.86-5.243-4.271-8.572-7.41c-8.352-7.88-10.466-25.1-10.916-36.41c0.011-0.17,0.011-0.26,0.011-0.26v-142.25h37.416v-4.88
	h-37.416L950.722,237.918L950.722,237.918z"/>
<path d="M728.948,483.862l-21-23.83l0.29-122.99c0.021-0.48,0.03-0.98,0-1.51c-0.56-10.45-4.16-19.67-9.92-27.23l-0.74-0.94
	c-4.319-5.4-9.77-9.9-16.01-13.33c-15.17-8.34-34.14-14.74-71.87-5.13c-29.649,7.54-45.989,26.11-52.6,35.5
	c-0.82,1.16-1.49,2.19-2.01,3.03c-0.57,0.9-0.971,1.6-1.221,2.04c4.271-0.28,12.091-0.46,24.38,0.41
	c7.181,0.51,12.99,1.54,17.5,2.66c0,0,1.16,0.28,1.601,0.42c2.544,0.788,5.02,1.669,7.427,2.648
	c0.188,0.076,0.379,0.146,0.565,0.224c0.209,0.087,0.413,0.183,0.622,0.271c0.655,0.28,1.312,0.56,1.957,0.856
	c4.21,1.94,8.149,4.23,11.75,6.93c12,9,20.159,19.03,25.729,28.62c-2.54-3.96-5.21-7.22-7.979-9.76
	c-9.924-9.062-21-13.792-34.155-14.332c-0.109-0.007-0.207-0.014-0.326-0.02c-7.906-0.413-17.629,0.914-17.629,0.914l-0.003,0.009
	c-10.569,1.33-22.698,4.938-32.737,13.538c-23.33,20-25.67,40.171-25.5,58.171s11.811,44.27,34.5,55.66c20.5,10.29,39.7,8.39,51.5,5
	c13.38-3.83,33.25-17.58,40.25-36.58c1.32-3.58,2.51-7.11,3.58-10.49v49.24L728.948,483.862L728.948,483.862z M654.569,430.862
	c-2.5,9.83-6.04,23.77-23.65,30.17c-15.6,5.66-39.52-13-45.34-24.79c-8.64-17.479-15.729-43.87-8.01-63.71
	c7.13-18.31,22.01-20.97,31.66-20.63c9.79,1.54,18.28,5.86,26.16,13.07c8.93,8.15,15.359,23.44,19.39,35.811
	C655.089,403.722,656.859,421.842,654.569,430.862z M656.078,388.901c-4.21-12.949-13.63-31.669-34.609-47.409
	c-4.619-3.458-9.777-6.254-15.26-8.514v-0.001c0,0-2.066-0.889-3.825-1.636c0.406-1.664,1.143-4.569,2.185-8.309
	c1.67-6,8.67-21.84,16.5-27.84s14.67-9.6,25-5.5c10.33,4.11,10.83,17.67,10.83,17.67v84.21
	C656.649,390.702,656.368,389.812,656.078,388.901z"/>
</svg>
